<svg width="572" height="618" viewBox="0 0 572 618" fill="none" xmlns="http://www.w3.org/2000/svg">
<path fill-rule="evenodd" clip-rule="evenodd" d="M560.36 368.397V368.397L559.625 370.614L558.878 372.816L558.119 375.002L557.351 377.173L556.574 379.328L555.79 381.469L555 383.596L554.204 385.709L553.405 387.808L552.604 389.894L551.801 391.968L550.999 394.03L550.199 396.081L549.403 398.122L548.611 400.153L547.825 402.176L547.046 404.191L546.277 406.199L545.517 408.202L544.768 410.2L544.032 412.195L543.309 414.188L542.601 416.18L541.908 418.172L541.232 420.166L540.573 422.163L539.931 424.164L539.308 426.171L538.704 428.185L538.119 430.207L537.554 432.239L537.008 434.282L536.481 436.337L535.974 438.406L535.486 440.491L535.016 442.591L534.564 444.709L534.13 446.845L533.712 449L533.309 451.176L532.92 453.373L532.543 455.592L532.178 457.833L531.822 460.098L531.474 462.386L531.131 464.697L530.792 467.032L530.454 469.391L530.116 471.772L529.774 474.177L529.426 476.605L529.07 479.054L528.703 481.525L528.323 484.015L527.928 486.525L527.514 489.054L527.08 491.599L526.622 494.16L526.139 496.734L525.628 499.322L525.087 501.92L524.513 504.526L523.904 507.14L523.258 509.759L522.573 512.38L521.846 515.003L521.077 517.623L520.261 520.239L519.399 522.848L518.489 525.449L517.528 528.038L516.516 530.612L515.451 533.17L514.332 535.708L513.158 538.223L511.928 540.714L510.641 543.177L509.297 545.61L507.895 548.009L506.435 550.373L504.918 552.699L503.341 554.984L501.707 557.226L500.015 559.422L498.265 561.571L496.459 563.668L494.596 565.714L492.678 567.705L490.706 569.64L488.681 571.516L486.603 573.333L484.475 575.088L482.298 576.78L480.073 578.408L477.802 579.971L475.487 581.468L473.129 582.898L470.731 584.26L468.295 585.555L465.823 586.782L463.318 587.942L460.781 589.036L458.215 590.064L455.622 591.028L453.006 591.928L450.367 592.767L447.709 593.545L445.035 594.266L442.345 594.931L439.643 595.543L436.931 596.104L434.211 596.617L431.484 597.085L428.752 597.51L426.018 597.896L423.282 598.247L420.547 598.564L417.813 598.852L415.082 599.113L412.355 599.352L409.632 599.571L406.914 599.774L404.202 599.965L401.497 600.146L398.797 600.321L396.103 600.492L393.416 600.663L390.735 600.837L388.059 601.017L385.388 601.204L382.722 601.402L380.059 601.612L377.398 601.837L374.739 602.078L372.08 602.337L369.42 602.615L366.758 602.913L364.093 603.232L361.423 603.572L358.747 603.934L356.063 604.317L353.37 604.721L350.667 605.146L347.952 605.59L345.224 606.052L342.482 606.532L339.725 607.027L336.951 607.537L334.159 608.06L331.349 608.593L328.519 609.135L325.669 609.684L322.798 610.237L319.906 610.793L316.991 611.347L314.054 611.899L311.095 612.444L308.113 612.981L305.108 613.506L302.081 614.017L299.032 614.51L295.961 614.983L292.869 615.432L289.756 615.856L286.624 616.25L283.473 616.611L280.304 616.937L277.119 617.225L273.918 617.473L270.704 617.676L267.478 617.833L264.241 617.941L260.995 617.997L257.742 618L254.484 617.946L251.222 617.835L247.959 617.663L244.697 617.428L241.438 617.13L238.184 616.767L234.937 616.337L231.699 615.838L228.472 615.271L225.26 614.634L222.063 613.926L218.884 613.146L215.725 612.295L212.588 611.373L209.475 610.378L206.389 609.311L203.33 608.174L200.3 606.965L197.302 605.687L194.336 604.34L191.404 602.926L188.506 601.446L185.643 599.902L182.816 598.296L180.026 596.631L177.272 594.907L174.555 593.128L171.874 591.297L169.23 589.414L166.621 587.484L164.047 585.508L161.507 583.489L159 581.43L156.525 579.334L154.081 577.202L151.666 575.038L149.279 572.844L146.918 570.622L144.58 568.375L142.266 566.105L139.971 563.814L137.695 561.504L135.435 559.177L133.189 556.834L130.956 554.478L128.733 552.109L126.518 549.729L124.309 547.339L122.104 544.94L119.901 542.532L117.698 540.117L115.494 537.695L113.287 535.265L111.075 532.829L108.858 530.386L106.633 527.935L104.4 525.477L102.158 523.011L99.9061 520.537L97.6439 518.053L95.371 515.558L93.0874 513.052L90.7931 510.534L88.4883 508.002L86.1734 505.455L83.8489 502.892L81.5157 500.311L79.1745 497.712L76.8264 495.093L74.4727 492.452L72.1147 489.788L69.7539 487.101L67.3919 484.387L65.0308 481.648L62.6722 478.88L60.3185 476.082L57.9717 473.255L55.6342 470.396L53.3085 467.504L50.997 464.579L48.7024 461.619L46.4275 458.625L44.1749 455.594L41.9475 452.527L39.7481 449.423L37.5798 446.282L35.4454 443.104L33.3479 439.887L31.2902 436.633L29.2754 433.341L27.3063 430.012L25.3859 426.645L23.517 423.242L21.7025 419.803L19.945 416.327L18.2474 412.818L16.6122 409.274L15.0419 405.697L13.5389 402.088L12.1056 398.449L10.7442 394.78L9.45671 391.083L8.24513 387.359L7.11128 383.611L6.05682 379.838L5.08331 376.044L4.19211 372.23L3.38449 368.397L2.6615 364.547L2.02408 360.683L1.47299 356.805L1.0088 352.917L0.631921 349.019L0.342604 345.114L0.140926 341.203L0.0268047 337.289L0 333.374L0.0601184 329.458L0.206618 325.544L0.438812 321.634L0.755877 317.73L1.15686 313.832L1.64067 309.944L2.20611 306.065L2.85187 302.199L3.57652 298.345L4.37856 294.506L5.25636 290.683L6.20825 286.878L7.23244 283.09L8.32712 279.322L9.49038 275.573L10.7203 271.846L12.0149 268.141L13.3721 264.459L14.7898 260.799L16.2662 257.164L17.7989 253.553L19.386 249.966L21.0254 246.404L22.7151 242.867L24.4528 239.356L26.2368 235.87L28.0649 232.409L29.9351 228.973L31.8457 225.562L33.7947 222.176L35.7803 218.815L37.8007 215.478L39.8544 212.165L41.9396 208.876L44.0547 205.609L46.1985 202.365L48.3693 199.143L50.566 195.943L52.7872 192.764L55.0318 189.605L57.2987 186.465L59.5868 183.345L61.8952 180.244L64.223 177.16L66.5693 174.093L68.9333 171.043L71.3145 168.008L73.7122 164.989L76.1258 161.984L78.5549 158.993L80.999 156.015L83.458 153.049L85.9314 150.096L88.4192 147.154L90.9213 144.222L93.4375 141.301L95.9679 138.39L98.5126 135.488L101.072 132.595L103.646 129.71L106.234 126.834L108.838 123.966L111.458 121.105L114.093 118.252L116.746 115.407L119.415 112.57L122.102 109.74L124.807 106.917L127.53 104.102L130.274 101.296L133.037 98.4975L135.822 95.7079L138.628 92.9274L141.456 90.1565L144.308 87.3958L147.183 84.646L150.084 81.9078L153.01 79.182L155.962 76.4694L158.941 73.7711L161.948 71.088L164.984 68.4212L168.049 65.7719L171.145 63.1413L174.271 60.5308L177.429 57.9416L180.618 55.3753L183.841 52.8334L187.097 50.3178L190.387 47.8304L193.711 45.3734L197.072 42.949L200.468 40.5597L203.901 38.2081L207.371 35.8968L210.878 33.6288L214.423 31.4069L218.007 29.2341L221.629 27.1136L225.288 25.0484L228.987 23.0419L232.723 21.0973L236.496 19.2179L240.307 17.407L244.155 15.6678L248.038 14.0037L251.957 12.4178L255.909 10.9135L259.895 9.49393L263.911 8.16207L267.958 6.92098L272.034 5.77357L276.136 4.72263L280.263 3.77086L284.413 2.9208L288.583 2.17486L292.773 1.5353L296.978 1.0042L301.198 0.58348L305.429 0.274879L309.668 0.0799378L313.913 0L318.162 0.0362026L322.411 0.189469L326.658 0.460504L330.899 0.849786L335.131 1.35757L339.352 1.98386L343.559 2.72846L347.748 3.59089L351.917 4.57046L356.063 5.66624L360.182 6.87703L364.272 8.20145L368.33 9.63786L372.354 11.1844L376.34 12.8391L380.286 14.5996L384.189 16.4635L388.048 18.4281L391.859 20.4906L395.621 22.648L399.332 24.8971L402.989 27.2346L406.591 29.657L410.137 32.1607L413.624 34.742L417.052 37.3969L420.42 40.1217L423.726 42.9121L426.97 45.7642L430.151 48.6738L433.269 51.6365L436.323 54.6483L439.313 57.7048L442.24 60.8018L445.103 63.935L447.903 67.1L450.64 70.2928L453.316 73.5091L455.931 76.7447L458.486 79.9958L460.982 83.2582L463.421 86.5281L465.804 89.8017L468.132 93.0754L470.408 96.3456L472.633 99.6089L474.809 102.862L476.937 106.102L479.021 109.326L481.061 112.53L483.061 115.713L485.023 118.872L486.948 122.005L488.84 125.11L490.699 128.184L492.53 131.226L494.333 134.234L496.113 137.208L497.869 140.146L499.606 143.048L501.324 145.912L503.027 148.739L504.715 151.528L506.391 154.281L508.055 156.996L509.71 159.676L511.356 162.321L512.995 164.932L514.627 167.511L516.254 170.058L517.875 172.577L519.491 175.067L521.102 177.532L522.708 179.972L524.309 182.391L525.905 184.79L527.495 187.171L529.078 189.537L530.654 191.889L532.221 194.229L533.779 196.561L535.326 198.885L536.862 201.204L538.383 203.52L539.89 205.835L541.381 208.15L542.853 210.468L544.305 212.79L545.735 215.117L547.142 217.452L548.523 219.795L549.877 222.147L551.202 224.51L552.496 226.884L553.758 229.271L554.985 231.671L556.177 234.083L557.331 236.51L558.446 238.95L559.521 241.404L560.555 243.872L561.546 246.354L562.494 248.848L563.399 251.355L564.259 253.874L565.074 256.404L565.844 258.945L566.568 261.496L567.247 264.055L567.88 266.623L568.466 269.198L569.007 271.779L569.502 274.366L569.951 276.957L570.354 279.551L570.712 282.149L571.025 284.747L571.294 287.347L571.518 289.946L571.699 292.544L571.837 295.139L571.933 297.731L571.987 300.32L572 302.903L571.973 305.481L571.907 308.051L571.802 310.615L571.659 313.17L571.481 315.716L571.266 318.253L571.017 320.779L570.734 323.293L570.418 325.797L570.071 328.288L569.693 330.766L569.286 333.231L568.85 335.682L568.387 338.119L567.897 340.542L567.383 342.949L566.844 345.342L566.282 347.719L565.698 350.081L565.093 352.426L564.469 354.756L563.825 357.07L563.164 359.367L562.486 361.649L561.792 363.914L561.083 366.164L560.36 368.397" fill="#FFC01D"/>
</svg>
